<svg width="22" height="27" viewBox="0 0 22 27" fill="none" xmlns="http://www.w3.org/2000/svg">
<g filter="url(#filter0_d_1583_24)">
<path d="M10.3018 10.0166L13.1296 11.6493L7.82347 20.8397L6.96223 20.9709L5.48386 23.2594L4.3056 22.5791L5.54831 20.1546L4.99564 19.2071L10.3018 10.0166Z" fill="white"/>
<path d="M17.0472 5.47998C17.5381 4.62974 17.2468 3.54237 16.3965 3.05149C15.5463 2.5606 14.4589 2.85196 13.968 3.7022L11.7458 7.5512L14.825 9.32898L17.0472 5.47998Z" fill="black"/>
<path d="M8.60731 6.76565L8.16287 7.53545C7.91743 7.96057 8.06311 8.50425 8.48822 8.74969L15.4164 12.7497C15.8415 12.9951 16.3852 12.8495 16.6307 12.4243L17.0751 11.6545C17.3206 11.2294 17.1749 10.6857 16.7498 10.4403L9.82156 6.44029C9.39644 6.19485 8.85276 6.34053 8.60731 6.76565Z" fill="black"/>
<path d="M16.9718 10.0553L15.4322 9.16638L17.4322 5.70228C18.0458 4.63948 17.6816 3.28027 16.6188 2.66667C15.556 2.05306 14.1968 2.41726 13.5832 3.48006L11.5832 6.94416L10.0436 6.05527C9.40591 5.68711 8.59039 5.90562 8.22222 6.5433L7.77778 7.3131C7.40961 7.95078 7.62813 8.76631 8.26581 9.13447L9.80541 10.0234L4.91652 18.4912C4.63464 18.9807 4.69113 19.5947 5.05763 20.0245L4.13077 21.6299C3.7626 22.2676 3.98112 23.0831 4.6188 23.4513C5.25648 23.8194 6.072 23.6009 6.44017 22.9632L7.36703 21.3579C7.92256 21.4603 8.48252 21.2023 8.76552 20.7134L13.6544 12.2456L15.194 13.1345C15.8317 13.5026 16.6472 13.2841 17.0154 12.6464L17.4598 11.8766C17.828 11.239 17.6095 10.4234 16.9718 10.0553ZM14.353 3.9245C14.7212 3.28682 15.5367 3.0683 16.1744 3.43647C16.812 3.80463 17.0306 4.62015 16.6624 5.25783L14.6624 8.72194L12.353 7.3886L14.353 3.9245ZM7.99572 20.2689C7.873 20.4815 7.60116 20.5543 7.3886 20.4316C7.17604 20.3089 6.9042 20.3817 6.78148 20.5943L5.67037 22.5188C5.54765 22.7314 5.27581 22.8042 5.06325 22.6815C4.85069 22.5588 4.77785 22.2869 4.90057 22.0744L6.01168 20.1499C6.1344 19.9373 6.06156 19.6655 5.849 19.5427C5.63644 19.42 5.5636 19.1482 5.68632 18.9356L10.5752 10.4678L12.8846 11.8011L7.99572 20.2689ZM16.2456 12.202C16.1229 12.4146 15.851 12.4874 15.6385 12.3647L8.71026 8.36467C8.4977 8.24195 8.42486 7.97011 8.54758 7.75755L8.99202 6.98775C9.11474 6.77519 9.38659 6.70235 9.59914 6.82507L16.5273 10.8251C16.7399 10.9478 16.8127 11.2196 16.69 11.4322L16.2456 12.202Z" fill="black"/>
</g>
<defs>
<filter id="filter0_d_1583_24" x="1.95215" y="1.36865" width="17.7783" height="25.2615" filterUnits="userSpaceOnUse" color-interpolation-filters="sRGB">
<feFlood flood-opacity="0" result="BackgroundImageFix"/>
<feColorMatrix in="SourceAlpha" type="matrix" values="0 0 0 0 0 0 0 0 0 0 0 0 0 0 0 0 0 0 127 0" result="hardAlpha"/>
<feOffset dy="1"/>
<feGaussianBlur stdDeviation="1"/>
<feComposite in2="hardAlpha" operator="out"/>
<feColorMatrix type="matrix" values="0 0 0 0 0 0 0 0 0 0 0 0 0 0 0 0 0 0 0.24 0"/>
<feBlend mode="normal" in2="BackgroundImageFix" result="effect1_dropShadow_1583_24"/>
<feBlend mode="normal" in="SourceGraphic" in2="effect1_dropShadow_1583_24" result="shape"/>
</filter>
</defs>
</svg>
