<?xml version="1.0" encoding="utf-8"?>
<!-- Generator: Adobe Illustrator 25.0.1, SVG Export Plug-In . SVG Version: 6.00 Build 0)  -->
<svg version="1.1" xmlns="http://www.w3.org/2000/svg" xmlns:xlink="http://www.w3.org/1999/xlink" x="0px" y="0px"
	 viewBox="0 0 205.43 411.1" style="enable-background:new 0 0 205.43 411.1;" xml:space="preserve">
<style type="text/css">
	.st0{fill:#E7E7E7;}
	.st1{fill:#B7B9B8;}
	.st2{fill:#505052;}
	.st3{fill:#2A2A2B;}
	.st4{fill:#757575;}
	.st5{fill:#8C8C8C;}
	.st6{fill:#5D5E62;}
	.st7{fill:#FAFAFA;}
	.st8{fill:#F7F7F7;}
	.st9{fill:#8481C1;}
	.st10{fill:#B9B9B9;}
	.st11{fill:none;stroke:#949494;stroke-width:0.4082;stroke-linecap:round;stroke-linejoin:round;stroke-miterlimit:10;}
	.st12{fill:#949494;}
	.st13{fill:none;stroke:#E1E1E1;stroke-width:0.8163;stroke-miterlimit:10;}
	.st14{fill:#2A2A2A;}
	.st15{fill:url(#SVGID_13_);}
	.st16{fill:url(#SVGID_14_);}
	.st17{fill:none;stroke:#2A2A2A;stroke-width:0.6122;stroke-linecap:round;stroke-linejoin:round;stroke-miterlimit:10;}
	.st18{fill:none;stroke:#2A2A2A;stroke-width:0.8163;stroke-linecap:round;stroke-linejoin:round;stroke-miterlimit:10;}
	.st19{fill:#302F35;}
	.st20{fill:#1D1C22;}
	.st21{clip-path:url(#SVGID_15_);}
	.st22{opacity:0.92;fill:url(#SVGID_16_);}
	.st23{fill:none;}
	.st24{opacity:0.7;}
	.st25{clip-path:url(#SVGID_17_);}
	.st26{filter:url(#Adobe_OpacityMaskFilter);}
	.st27{clip-path:url(#SVGID_18_);fill:url(#SVGID_20_);}
	.st28{clip-path:url(#SVGID_18_);mask:url(#SVGID_19_);fill:url(#SVGID_21_);}
	.st29{opacity:0.4;clip-path:url(#SVGID_17_);}
	.st30{opacity:0.5;clip-path:url(#SVGID_22_);}
	.st31{clip-path:url(#SVGID_23_);}
	.st32{filter:url(#Adobe_OpacityMaskFilter_1_);}
	.st33{clip-path:url(#SVGID_24_);}
	.st34{clip-path:url(#SVGID_27_);}
	.st35{clip-path:url(#SVGID_24_);mask:url(#SVGID_25_);}
	.st36{filter:url(#Adobe_OpacityMaskFilter_2_);}
	.st37{enable-background:new    ;}
	.st38{clip-path:url(#SVGID_31_);}
	.st39{clip-path:url(#SVGID_35_);}
	.st40{filter:url(#Adobe_OpacityMaskFilter_3_);}
	.st41{clip-path:url(#SVGID_37_);}
	.st42{clip-path:url(#SVGID_40_);}
	.st43{filter:url(#Adobe_OpacityMaskFilter_4_);}
	.st44{clip-path:url(#SVGID_41_);}
	.st45{clip-path:url(#SVGID_44_);}
	.st46{clip-path:url(#SVGID_41_);mask:url(#SVGID_42_);}
	.st47{filter:url(#Adobe_OpacityMaskFilter_5_);}
	.st48{clip-path:url(#SVGID_48_);}
	.st49{clip-path:url(#SVGID_52_);}
	.st50{filter:url(#Adobe_OpacityMaskFilter_6_);}
	.st51{clip-path:url(#SVGID_54_);}
	.st52{clip-path:url(#SVGID_57_);}
	.st53{fill:#FFFDFF;}
	.st54{fill:#FFFFFF;}
	.st55{fill:#CECECE;}
	.st56{clip-path:url(#SVGID_59_);}
	.st57{opacity:0.92;fill:url(#SVGID_60_);}
	.st58{opacity:0.21;fill:#FFFFFF;}
	.st59{fill:#972428;}
	.st60{fill:#BABCBE;}
	.st61{clip-path:url(#SVGID_61_);}
	.st62{opacity:0.92;fill:url(#SVGID_62_);}
	.st63{font-family:'CenturyGothic';}
	.st64{font-size:42.4967px;}
	.st65{fill:#211915;}
	.st66{font-family:'Poppins-Regular';}
	.st67{font-size:6.7009px;}
</style>
<g id="BACKGROUND">
</g>
<g id="OBJECTS">
</g>
<g id="DESIGNED_BY_FREEPIK">
	<g>
		<path class="st2" d="M35.55,409.24c-18.3,0-33.19-14.89-33.19-33.19V35.04c0-18.3,14.89-33.19,33.19-33.19h134.34
			c18.3,0,33.19,14.89,33.19,33.19v341.02c0,18.3-14.89,33.19-33.19,33.19H35.55z"/>
		<g>
			<g>
				<g>
					<path class="st19" d="M35.55,404.89c-15.9,0-28.84-12.94-28.84-28.84V35.04c0-15.9,12.94-28.84,28.84-28.84h134.34
						c15.9,0,28.84,12.94,28.84,28.84v341.02c0,15.9-12.94,28.84-28.84,28.84H35.55z"/>
					<path class="st20" d="M169.89,399.25H35.55c-12.81,0-23.19-10.38-23.19-23.19V35.04c0-12.81,10.38-23.19,23.19-23.19h134.34
						c12.81,0,23.19,10.38,23.19,23.19v341.02C193.08,388.86,182.69,399.25,169.89,399.25z"/>
				</g>
			</g>
		</g>
		<g>
			<defs>
				<path id="SVGID_12_" d="M35.55,397.09c-11.35,0-20.58-9.23-20.58-20.58V35.49c0-11.35,9.23-20.58,20.58-20.58h134.34
					c11.35,0,20.58,9.23,20.58,20.58v341.02c0,11.35-9.23,20.58-20.58,20.58H35.55z"/>
			</defs>
			<clipPath id="SVGID_13_">
				<use xlink:href="#SVGID_12_"  style="overflow:visible;"/>
			</clipPath>
			<g style="clip-path:url(#SVGID_13_);">
				<linearGradient id="SVGID_14_" gradientUnits="userSpaceOnUse" x1="93.937" y1="390.1833" x2="95.4881" y2="-269.816">
					<stop  offset="0.138" style="stop-color:#FFFFFF"/>
					<stop  offset="0.9971" style="stop-color:#000000"/>
				</linearGradient>
				<rect x="-22.03" y="9.5" style="opacity:0.92;fill:url(#SVGID_14_);" width="232.81" height="388.01"/>
				<rect x="-20.51" y="49.65" class="st23" width="232.81" height="388.01"/>
			</g>
		</g>
		<path class="st20" d="M152.69,11.96H52.75l4.44,10.35c2.02,4.7,6.64,7.75,11.76,7.75h67.54c5.11,0,9.74-3.05,11.76-7.75
			L152.69,11.96z"/>
		<g>
			<path class="st53" d="M107.53,65.84v-2.36c0-2.65-2.16-4.81-4.81-4.81c-2.65,0-4.81,2.16-4.81,4.81v2.36
				c-0.86,0.48-1.44,1.38-1.44,2.43v6.63c0,1.54,1.25,2.79,2.79,2.79h6.93c1.54,0,2.79-1.25,2.79-2.79v-6.63
				C108.97,67.21,108.38,66.31,107.53,65.84 M102.72,60.09c1.87,0,3.39,1.52,3.39,3.39v2h-6.78v-2
				C99.33,61.61,100.85,60.09,102.72,60.09"/>
			<text transform="matrix(1 0 0 1 49.7318 125.1058)" class="st54 st63 st64">15:10</text>
		</g>
		<path class="st54" d="M184.33,190.95H21.1c-3.34,0-6.08-2.73-6.08-6.08v-43.73c0-3.34,2.73-6.08,6.08-6.08h163.23
			c3.34,0,6.08,2.73,6.08,6.08v43.73C190.41,188.22,187.67,190.95,184.33,190.95z"/>
		<g>
			<text transform="matrix(1 0 0 1 168.3424 147.4358)" class="st65 st66 st67">now</text>
			<g>
				<path class="st55" d="M30.61,151.83h-7.6c-1.09,0-1.97-0.88-1.97-1.97v-7.6c0-1.09,0.88-1.97,1.97-1.97h7.6
					c1.09,0,1.97,0.88,1.97,1.97v7.6C32.58,150.95,31.7,151.83,30.61,151.83z"/>
				<path class="st54" d="M30.31,151.38h-7c-1,0-1.82-0.81-1.82-1.82v-7c0-1,0.81-1.82,1.82-1.82h7c1,0,1.82,0.81,1.82,1.82v7
					C32.13,150.56,31.32,151.38,30.31,151.38z"/>
			</g>
		</g>
	</g>
</g>
</svg>
